<svg id="Calque_1" data-name="Calque 1" xmlns="http://www.w3.org/2000/svg" viewBox="0 0 190.76 155.32"><defs><style>.cls-1{fill:#fff;}.cls-2{fill:#ed1d26;}.cls-3{fill:none;stroke:#ed1933;stroke-miterlimit:112;stroke-width:0.99px;}</style></defs><title>Artboard 6</title><path class="cls-1" d="M86.45,59.76a58.81,58.81,0,0,0,6.17-2,41.34,41.34,0,0,0,9.84-5.15A21.41,21.41,0,0,0,107.88,47a12.9,12.9,0,0,0,2.1-5.58,11.85,11.85,0,0,0-.29-5,19.09,19.09,0,0,0-2.32-5,30.55,30.55,0,0,0-3.79-4.62,42.55,42.55,0,0,0-5-4.24,60.59,60.59,0,0,0-5.77-3.8c-2-1.13-4-2.23-6.19-3.25s-4.3-1.93-6.53-2.84-4.53-1.7-6.87-2.46S68.5,8.7,66,8.05s-5-1.28-7.58-1.82-5.26-1.07-8-1.5-5.66-.85-8.6-1.16a18.77,18.77,0,0,1-1.92-.31,17,17,0,0,1-1.69-.45A7.91,7.91,0,0,1,37,2.23a2.87,2.87,0,0,1-.92-.8A.33.33,0,0,1,36.18,1,2.31,2.31,0,0,1,37,.62,7.82,7.82,0,0,1,38.57.45a11.66,11.66,0,0,1,1.69.12c6.7.79,13.07,1.86,19,3.17s11.48,2.77,16.8,4.47a151.13,151.13,0,0,1,15.52,6,97.18,97.18,0,0,1,14.59,8.12,56.11,56.11,0,0,1,12,10.68c3.48,4.27,5.68,8.8,6.25,13.45.68,5.46-1,11.34-5.58,16.66-5.57,6.49-15.46,12.41-30.48,16.51a12.85,12.85,0,0,1-4.69.31,17,17,0,0,1-4.81-1.36.87.87,0,0,1-.14-.08L50,88.76a9.25,9.25,0,0,1-4.46.42,11.82,11.82,0,0,1-4.44-1.75,14.17,14.17,0,0,1-3.74-3.6,15.45,15.45,0,0,1-2.4-5L25.44,44.28s0,0,0,0A37,37,0,0,0,18.66,55a25,25,0,0,0-1.87,12.26A24.66,24.66,0,0,0,22.9,80.63c.54.62,1.1,1.22,1.72,1.81s1.28,1.22,2,1.81,1.45,1.19,2.24,1.76,1.66,1.16,2.54,1.73c6.9,4.36,15.69,7.42,25.87,9a115,115,0,0,0,35.25-.26,115.9,115.9,0,0,0,34.86-11.1c10-5.18,17.93-11.52,23-18.54.65-.9,1.27-1.84,1.83-2.77s1-1.87,1.5-2.81a30,30,0,0,0,1.19-2.77,26.8,26.8,0,0,0,.85-2.78,1.67,1.67,0,0,1,.11-.34,1.46,1.46,0,0,1,.14-.31,1.2,1.2,0,0,1,.17-.34,1.62,1.62,0,0,1,.2-.28,5.94,5.94,0,0,1,2.37-1.84,14.73,14.73,0,0,1,3.68-1.19,26.08,26.08,0,0,1,4.75-.45,39.48,39.48,0,0,1,5.57.39c.28,0,.54.09.82.11s.54.09.79.15l.79.17.79.17a35.6,35.6,0,0,1,5.4,1.64,25.19,25.19,0,0,1,4.53,2.29A12.83,12.83,0,0,1,189,58.66a4.87,4.87,0,0,1,1.22,3,34.25,34.25,0,0,1-.2,4.17,30.92,30.92,0,0,1-.71,4.27,35.2,35.2,0,0,1-1.24,4.33,38.32,38.32,0,0,1-1.81,4.39c-5.4,11.38-16,21.8-30.76,30.24-15.43,8.81-34.09,14.67-53.86,17-18.88,2.26-37.2,1.1-53.23-3.15-14.25-3.76-25.87-9.76-34.21-17.44-1.05-1-2-1.95-3-2.94s-1.72-1.93-2.51-2.92-1.45-1.92-2.1-2.92S5.43,94.76,4.89,93.8A35,35,0,0,1,.59,74.23,41.07,41.07,0,0,1,5.57,58a60.62,60.62,0,0,1,9.89-13.17,76.82,76.82,0,0,1,8.15-7.19L19.17,21.54a6.85,6.85,0,0,1-.12-3.43,4.89,4.89,0,0,1,1.5-2.46,5.89,5.89,0,0,1,2.72-1.28,9.4,9.4,0,0,1,3.62,0l37.2,6.66a7.1,7.1,0,0,1,2.32.87,11.47,11.47,0,0,1,2.26,1.62,14.85,14.85,0,0,1,2,2.18,12.58,12.58,0,0,1,1.5,2.49Z"/><path class="cls-2" d="M181.67,64.05A38.55,38.55,0,0,1,180.8,68c-.4,1.3-.85,2.63-1.39,3.94s-1.16,2.66-1.86,4c-5.46,10.25-15.44,19.59-29.1,27.18-14.19,7.9-31.15,13.25-49.1,15.58-17.19,2.2-34,1.44-48.77-2.1-13.32-3.17-24.32-8.38-32.4-15.21-1-.87-2-1.72-2.89-2.63S13.6,97,12.81,96.08s-1.45-1.76-2.1-2.64S9.5,91.69,9,90.81A31.83,31.83,0,0,1,4.1,72.72,37.08,37.08,0,0,1,8.34,57.31,54.45,54.45,0,0,1,17.5,44.68,78.71,78.71,0,0,1,30,34.24a.35.35,0,0,1,.11-.09.17.17,0,0,0,.11-.06l.12-.08a.25.25,0,0,1,.14-.06,9.55,9.55,0,0,1,1-.48c.34-.11.68-.22,1-.31a7.2,7.2,0,0,1,1-.17,4,4,0,0,1,.85,0,.08.08,0,0,0,.08,0,.11.11,0,0,1,.09,0c.05,0,.08,0,.11,0l.06,0a.71.71,0,0,1,.39.29.52.52,0,0,1,0,.42,1.08,1.08,0,0,1-.31.54,3.39,3.39,0,0,1-.68.59,64.72,64.72,0,0,0-10.8,9.49,41.37,41.37,0,0,0-7.38,11.19A27.76,27.76,0,0,0,13.4,68.73a26.21,26.21,0,0,0,5.85,14.55c.57.68,1.13,1.36,1.76,2s1.32,1.36,2,2,1.5,1.33,2.32,2,1.72,1.3,2.66,1.93c7.23,4.92,16.62,8.49,27.59,10.42a120.29,120.29,0,0,0,38.53.2,120.61,120.61,0,0,0,38.28-12.18c10.94-5.72,19.4-12.77,24.66-20.56.67-1,1.3-2,1.86-3.08a26.59,26.59,0,0,0,1.5-3.09,31,31,0,0,0,1.16-3,29.83,29.83,0,0,0,.76-3c0-.08,0-.14.06-.2a.43.43,0,0,1,.06-.2.47.47,0,0,1,.11-.19.62.62,0,0,1,.11-.17A3.67,3.67,0,0,1,164.06,55a8.58,8.58,0,0,1,2.18-.71,21.43,21.43,0,0,1,2.82-.25,19.38,19.38,0,0,1,3.31.28l.48.09.45.08.48.09a3,3,0,0,1,.46.11,19.86,19.86,0,0,1,3.08,1A15.08,15.08,0,0,1,179.83,57a7.25,7.25,0,0,1,1.67,1.56,2.67,2.67,0,0,1,.57,1.67,35.34,35.34,0,0,1-.4,3.82M47.41,29.71l10.09.93,3.9,9.77,7.78.11,4.66,11-7.77.68,4.52,11.3L60.44,65.41,56,53.07,45.23,54,40.65,40.15l10.63.15L47.41,29.71ZM75.8,64.39a7.42,7.42,0,0,1,2.68-1c11.73-2.06,20.19-5.57,25.62-9.74,4.66-3.56,7-7.61,7.4-11.69a16.17,16.17,0,0,0-3-10.65,38.07,38.07,0,0,0-9.1-9.06,74.84,74.84,0,0,0-12.27-7.16A116.15,116.15,0,0,0,73.45,9.69a151.36,151.36,0,0,0-15-4A170.91,170.91,0,0,0,41.56,3a13.65,13.65,0,0,1-1.47-.26,8.06,8.06,0,0,1-1.33-.34,7.57,7.57,0,0,1-1-.42,1.35,1.35,0,0,1-.51-.43.27.27,0,0,1,.08-.34A2,2,0,0,1,38,1a9.3,9.3,0,0,1,1-.06c.4,0,.85,0,1.36.08,3.34.4,6.59.85,9.73,1.39s6.07,1.08,9,1.73,5.71,1.3,8.48,2,5.45,1.55,8.08,2.4,5.29,1.76,7.81,2.72,5.08,2.07,7.52,3.17S96,16.82,98.3,18.12s4.78,2.78,7,4.31a62.77,62.77,0,0,1,6.39,5A46.8,46.8,0,0,1,117,32.93a29.69,29.69,0,0,1,3.87,6.18,21.16,21.16,0,0,1,2,6.91,18.25,18.25,0,0,1-.87,7.64,22.6,22.6,0,0,1-5,8.21,41.62,41.62,0,0,1-10.91,8.27,84.38,84.38,0,0,1-19,7.22,9.15,9.15,0,0,1-3.62.2,12.3,12.3,0,0,1-3.7-1,12.64,12.64,0,0,1-3.2-2.07,10.06,10.06,0,0,1-2.26-2.8,6.44,6.44,0,0,1-.79-2.92,4.69,4.69,0,0,1,.59-2.49,5.21,5.21,0,0,1,1.73-1.87M189,58.64a12.81,12.81,0,0,0-3.16-2.74,25.19,25.19,0,0,0-4.53-2.3,36.77,36.77,0,0,0-5.4-1.64l-.79-.17-.79-.17c-.25,0-.54-.08-.79-.14l-.82-.11a38.12,38.12,0,0,0-5.57-.4,27,27,0,0,0-4.75.45,15.15,15.15,0,0,0-3.68,1.19,6,6,0,0,0-2.37,1.84,1.68,1.68,0,0,0-.2.29,1,1,0,0,0-.17.34,1.26,1.26,0,0,0-.14.31,1.5,1.5,0,0,0-.11.34,26.63,26.63,0,0,1-.85,2.77,30.16,30.16,0,0,1-1.19,2.78c-.45.93-1,1.87-1.5,2.8S151,66,150.38,66.86c-5.09,7-13,13.36-23,18.54A115.9,115.9,0,0,1,92.5,96.5a115.31,115.31,0,0,1-35.25.26c-10.18-1.62-19-4.67-25.87-9-.88-.56-1.72-1.13-2.54-1.72s-1.53-1.16-2.24-1.76-1.35-1.19-2-1.81-1.18-1.19-1.72-1.81a24.66,24.66,0,0,1-6.11-13.37A25,25,0,0,1,18.66,55a37,37,0,0,1,6.76-10.67s0,0,0-.06L35,78.78a15.55,15.55,0,0,0,2.4,5,14,14,0,0,0,3.74,3.59,11.84,11.84,0,0,0,4.44,1.76A9.13,9.13,0,0,0,50,88.74L78.76,78.47l.14.08a17,17,0,0,0,4.81,1.36,13.07,13.07,0,0,0,4.69-.31c15-4.11,24.91-10,30.48-16.51,4.58-5.32,6.19-11,5.51-16.48-.56-4.64-2.77-9.17-6.24-13.45A55.92,55.92,0,0,0,106.1,22.49a97.61,97.61,0,0,0-14.59-8.13A150.24,150.24,0,0,0,76,8.38C70.68,6.69,65,5.16,59.2,3.91S46.9,1.53,40.2.74A11.64,11.64,0,0,0,38.51.63,8.11,8.11,0,0,0,37.2.71a1.73,1.73,0,0,0-.81.28.33.33,0,0,0-.12.43,1.55,1.55,0,0,0,.62.54,8.39,8.39,0,0,0,1.25.53c.51.17,1.07.32,1.69.46s1.25.22,1.93.31c2.94.31,5.79.71,8.59,1.16s5.4.93,8,1.5,5.12,1.16,7.58,1.81,4.86,1.36,7.18,2.13,4.64,1.58,6.87,2.46,4.44,1.84,6.53,2.83,4.24,2.13,6.19,3.26a61.19,61.19,0,0,1,5.77,3.79,43.57,43.57,0,0,1,5,4.25,30.55,30.55,0,0,1,3.79,4.62,19.09,19.09,0,0,1,2.32,5,13.32,13.32,0,0,1,.4,5.35,12.9,12.9,0,0,1-2.1,5.58,21.57,21.57,0,0,1-5.42,5.61,41.7,41.7,0,0,1-9.84,5.15,63.9,63.9,0,0,1-6.17,2L72.18,28.21a13,13,0,0,0-1.5-2.5,14.85,14.85,0,0,0-2-2.18,11,11,0,0,0-2.26-1.61A7.13,7.13,0,0,0,64.09,21l-37.2-6.65a9,9,0,0,0-3.62,0,6,6,0,0,0-2.72,1.27,4.92,4.92,0,0,0-1.5,2.47,6.81,6.81,0,0,0,.12,3.42l4.44,16.06a75.72,75.72,0,0,0-8.15,7.19A60.14,60.14,0,0,0,5.57,57.94a41,41,0,0,0-5,16.28,35,35,0,0,0,4.3,19.56c.54,1,1.1,1.93,1.75,2.89s1.36,2,2.1,2.92,1.64,2,2.51,2.92,1.92,2,3,2.94c8.34,7.67,20,13.68,34.21,17.44,16,4.25,34.35,5.41,53.23,3.15,19.77-2.35,38.43-8.22,53.86-17,14.79-8.44,25.36-18.86,30.76-30.24a39.07,39.07,0,0,0,1.81-4.39,35.71,35.71,0,0,0,1.24-4.33,31.32,31.32,0,0,0,.71-4.28,34.08,34.08,0,0,0,.2-4.16,4.92,4.92,0,0,0-1.22-3"/><path class="cls-3" d="M181.67,64.05A38.55,38.55,0,0,1,180.8,68c-.4,1.3-.85,2.63-1.39,3.94s-1.16,2.66-1.86,4c-5.46,10.25-15.44,19.59-29.1,27.18-14.19,7.9-31.15,13.25-49.1,15.58-17.19,2.2-34,1.44-48.77-2.1-13.32-3.17-24.32-8.38-32.4-15.21-1-.87-2-1.72-2.89-2.63S13.6,97,12.81,96.08s-1.45-1.76-2.1-2.64S9.5,91.69,9,90.81A31.83,31.83,0,0,1,4.1,72.72,37.08,37.08,0,0,1,8.34,57.31,54.45,54.45,0,0,1,17.5,44.68,78.71,78.71,0,0,1,30,34.24a.35.35,0,0,1,.11-.09.17.17,0,0,0,.11-.06l.12-.08a.25.25,0,0,1,.14-.06,9.55,9.55,0,0,1,1-.48c.34-.11.68-.22,1-.31a7.2,7.2,0,0,1,1-.17,4,4,0,0,1,.85,0,.08.08,0,0,0,.08,0,.11.11,0,0,1,.09,0c.05,0,.08,0,.11,0l.06,0a.71.71,0,0,1,.39.29.52.52,0,0,1,0,.42,1.08,1.08,0,0,1-.31.54,3.39,3.39,0,0,1-.68.59,64.72,64.72,0,0,0-10.8,9.49,41.37,41.37,0,0,0-7.38,11.19A27.76,27.76,0,0,0,13.4,68.73a26.21,26.21,0,0,0,5.85,14.55c.57.68,1.13,1.36,1.76,2s1.32,1.36,2,2,1.5,1.33,2.32,2,1.72,1.3,2.66,1.93c7.23,4.92,16.62,8.49,27.59,10.42a120.29,120.29,0,0,0,38.53.2,120.61,120.61,0,0,0,38.28-12.18c10.94-5.72,19.4-12.77,24.66-20.56.67-1,1.3-2,1.86-3.08a26.59,26.59,0,0,0,1.5-3.09,31,31,0,0,0,1.16-3,29.83,29.83,0,0,0,.76-3c0-.08,0-.14.06-.2a.43.43,0,0,1,.06-.2.47.47,0,0,1,.11-.19.62.62,0,0,1,.11-.17A3.67,3.67,0,0,1,164.06,55a8.58,8.58,0,0,1,2.18-.71,21.43,21.43,0,0,1,2.82-.25,19.38,19.38,0,0,1,3.31.28l.48.09.45.08.48.09a3,3,0,0,1,.46.11,19.86,19.86,0,0,1,3.08,1A15.08,15.08,0,0,1,179.83,57a7.25,7.25,0,0,1,1.67,1.56,2.67,2.67,0,0,1,.57,1.67,35.34,35.34,0,0,1-.4,3.82M47.41,29.71l10.09.93,3.91,9.77,7.77.11,4.66,11-7.77.68,4.52,11.3L60.44,65.41,56,53.07,45.23,54,40.65,40.15l10.63.15L47.41,29.71ZM75.8,64.39a7.42,7.42,0,0,1,2.68-1c11.73-2.06,20.19-5.57,25.62-9.74,4.66-3.56,7-7.61,7.4-11.69a16.17,16.17,0,0,0-3-10.65,38.07,38.07,0,0,0-9.1-9.06,74.84,74.84,0,0,0-12.27-7.16A116.15,116.15,0,0,0,73.45,9.69a150.83,150.83,0,0,0-15-4A170.23,170.23,0,0,0,41.56,3a13.65,13.65,0,0,1-1.47-.26,8.06,8.06,0,0,1-1.33-.34,7.57,7.57,0,0,1-1-.42,1.35,1.35,0,0,1-.51-.43.27.27,0,0,1,.08-.34A2,2,0,0,1,38,1a9.3,9.3,0,0,1,1-.06c.4,0,.85,0,1.36.08,3.34.4,6.59.85,9.73,1.39s6.07,1.08,9,1.73,5.71,1.3,8.48,2,5.45,1.55,8.08,2.4,5.29,1.76,7.81,2.72,5.08,2.07,7.52,3.17S96,16.82,98.3,18.12s4.78,2.78,7,4.31a62.77,62.77,0,0,1,6.39,5A46.8,46.8,0,0,1,117,32.93a29.69,29.69,0,0,1,3.87,6.18,21.16,21.16,0,0,1,2,6.91,18.25,18.25,0,0,1-.87,7.64,22.6,22.6,0,0,1-5,8.21,41.62,41.62,0,0,1-10.91,8.27,84.38,84.38,0,0,1-19,7.22,9.15,9.15,0,0,1-3.62.2,12.3,12.3,0,0,1-3.7-1,12.64,12.64,0,0,1-3.2-2.07,10.06,10.06,0,0,1-2.26-2.8,6.44,6.44,0,0,1-.79-2.92,4.69,4.69,0,0,1,.59-2.49,5.21,5.21,0,0,1,1.73-1.87M25.44,44.26l.06.21L35,78.78a15.55,15.55,0,0,0,2.4,5,14,14,0,0,0,3.74,3.59,11.84,11.84,0,0,0,4.44,1.76A9.13,9.13,0,0,0,50,88.74L78.76,78.47l.15.08a16.87,16.87,0,0,0,4.8,1.36,13.07,13.07,0,0,0,4.69-.31c15-4.11,24.91-10,30.48-16.51,4.58-5.32,6.19-11,5.51-16.48-.56-4.64-2.77-9.17-6.24-13.45A55.92,55.92,0,0,0,106.1,22.49a97.61,97.61,0,0,0-14.59-8.13A150.24,150.24,0,0,0,76,8.38C70.68,6.69,65,5.16,59.2,3.91S46.9,1.53,40.2.74A11.64,11.64,0,0,0,38.51.63,8.11,8.11,0,0,0,37.2.71a1.73,1.73,0,0,0-.81.28.33.33,0,0,0-.12.43,1.55,1.55,0,0,0,.62.54,8.39,8.39,0,0,0,1.25.53c.51.17,1.07.32,1.69.46s1.25.22,1.93.31c2.94.31,5.79.71,8.59,1.16s5.4.93,8,1.5,5.12,1.16,7.58,1.81,4.86,1.36,7.18,2.13,4.64,1.58,6.87,2.46,4.44,1.84,6.53,2.83,4.24,2.13,6.19,3.26a61.19,61.19,0,0,1,5.77,3.79,43.57,43.57,0,0,1,5,4.25,30.55,30.55,0,0,1,3.79,4.62,19.09,19.09,0,0,1,2.32,5,13.32,13.32,0,0,1,.4,5.35,12.9,12.9,0,0,1-2.1,5.58,21.57,21.57,0,0,1-5.42,5.61,41.7,41.7,0,0,1-9.84,5.15,63.9,63.9,0,0,1-6.17,2L72.18,28.21a13,13,0,0,0-1.5-2.5,14.85,14.85,0,0,0-2-2.18,11,11,0,0,0-2.26-1.61A7.13,7.13,0,0,0,64.09,21l-37.2-6.65a9,9,0,0,0-3.62,0,6,6,0,0,0-2.72,1.27,4.92,4.92,0,0,0-1.5,2.47,6.81,6.81,0,0,0,.12,3.42l4.44,16.06a75.72,75.72,0,0,0-8.15,7.19A60.14,60.14,0,0,0,5.57,57.94a41,41,0,0,0-5,16.28,35,35,0,0,0,4.3,19.56c.54,1,1.1,1.93,1.75,2.89s1.36,2,2.1,2.92,1.64,2,2.51,2.92,1.92,2,3,2.94c8.34,7.67,20,13.68,34.21,17.44,16,4.25,34.35,5.41,53.23,3.15,19.77-2.35,38.43-8.22,53.86-17,14.79-8.44,25.36-18.86,30.76-30.24a39.07,39.07,0,0,0,1.81-4.39,35.71,35.71,0,0,0,1.24-4.33,31.32,31.32,0,0,0,.71-4.28,34.08,34.08,0,0,0,.2-4.16,4.92,4.92,0,0,0-1.22-3m0,0a12.81,12.81,0,0,0-3.16-2.74,25.19,25.19,0,0,0-4.53-2.3,36.77,36.77,0,0,0-5.4-1.64l-.79-.17-.79-.17c-.25,0-.54-.08-.79-.14l-.82-.11a38.12,38.12,0,0,0-5.57-.4,27,27,0,0,0-4.75.45,15.15,15.15,0,0,0-3.68,1.19,6,6,0,0,0-2.37,1.84,1.68,1.68,0,0,0-.2.29,1,1,0,0,0-.17.34,1.26,1.26,0,0,0-.14.31,1.5,1.5,0,0,0-.11.34,26.63,26.63,0,0,1-.85,2.77,30.16,30.16,0,0,1-1.19,2.78c-.45.93-1,1.87-1.5,2.8S151,66,150.38,66.86c-5.09,7-13,13.36-23,18.54A115.9,115.9,0,0,1,92.5,96.5a115.31,115.31,0,0,1-35.25.26c-10.18-1.62-19-4.67-25.87-9-.88-.56-1.72-1.13-2.54-1.72s-1.53-1.16-2.24-1.76-1.35-1.19-2-1.81-1.18-1.19-1.72-1.81a24.66,24.66,0,0,1-6.11-13.37A25,25,0,0,1,18.66,55a37,37,0,0,1,6.76-10.67"/><path class="cls-2" d="M8.55,146c1.55,1.22,2.54,2.07,2.54,4.2,0,3.23-2.8,5.15-6.3,5.15-1.32,0-4.15-.28-4.82-1.16l.1-2.36c0-.29.16-.44.34-.44a11.58,11.58,0,0,0,4.15,1.11c1.6,0,2.64-.49,2.64-2,0-.39-.16-.67-.86-1.24l-2.54-2c-1.76-1.4-2.69-2.15-2.69-4.51,0-3.32,3-4.77,6.11-4.77,1.22,0,4.15.42,4.15,1.14l-.1,2.36a.35.35,0,0,1-.34.36c-.49,0-1.27-1.14-3.6-1.14-1.37,0-2.33.57-2.33,1.66A2.19,2.19,0,0,0,6.08,144Z"/><path class="cls-2" d="M16.22,155.06c-.73,0-.83-.39-1-1.35l-2.57-12.3a.5.5,0,0,1,.42-.47h3.16a.47.47,0,0,1,.44.34l.75,4.92c.31,1.89.52,4.92.55,5.6H18c.07-.42.46-2,.93-3.53l2-6.71c.11-.31.37-.62.65-.62H25.1a.66.66,0,0,1,.62.62l.63,5.37c.13,1.14.28,3.24.44,4.87h.05c.28-1.19.52-2.18,1.42-5L30,141.36a.64.64,0,0,1,.57-.42h2.69c.26,0,.37.11.37.36l-4.77,12.62c-.26.68-.39,1.14-1.12,1.14H24.89c-.64,0-.9-.18-1-1.45l-.49-5c-.19-1.69-.29-4.12-.29-4.8h0a30.5,30.5,0,0,1-.8,3.32l-1.92,6.55c-.26.78-.42,1.4-1.27,1.4Z"/><path class="cls-2" d="M35.21,141.36c0-.34.2-.42.51-.42h2.72c.34,0,.39.11.39.42l-.72,13.21c0,.31-.13.49-.39.49H35c-.49,0-.52-.2-.52-.49Zm1-2.21c-.88,0-1.25-.36-1.2-1l0-1c.05-.83.49-1.11,1.35-1.11h1.76c.83,0,1.22.28,1.19,1.09l-.05,1c0,.83-.62,1-1.48,1Z"/><path class="cls-2" d="M47.59,147.08a3.92,3.92,0,0,1,2.1,3.68c0,2.9-2.23,4.56-5.39,4.56-2,0-4-.39-4-1.35l.11-2.2a.38.38,0,0,1,.36-.41c.34,0,1.76,1.24,3.78,1.24,1.17,0,1.92-.36,1.92-1s-.39-.77-.93-1.16L43.16,149A3.74,3.74,0,0,1,41,145.27c0-2.8,2-4.59,5.05-4.59,1.5,0,3.75.44,3.75,1.32l-.1,2c0,.21-.1.42-.31.42-.52,0-1.55-1-3.11-1-1.29,0-2,.34-2,1.12a1.1,1.1,0,0,0,.6.88Z"/><path class="cls-2" d="M58.13,147.08a3.9,3.9,0,0,1,2.1,3.68c0,2.9-2.22,4.56-5.39,4.56-2,0-4-.39-4-1.35l.1-2.2a.38.38,0,0,1,.37-.41c.33,0,1.76,1.24,3.78,1.24,1.16,0,1.92-.36,1.92-1s-.39-.77-.94-1.16L53.7,149a3.75,3.75,0,0,1-2.12-3.68c0-2.8,2-4.59,5.05-4.59,1.5,0,3.76.44,3.76,1.32l-.1,2c0,.21-.11.42-.32.42-.51,0-1.55-1-3.1-1-1.3,0-2,.34-2,1.12a1.11,1.11,0,0,0,.59.88Z"/><path class="cls-2" d="M73.63,140.94H68.91c-.44,0-.46-.21-.46-.39l.1-1.84a.44.44,0,0,1,.49-.49H82.28c.47,0,.49.21.49.49l-.1,1.71a.47.47,0,0,1-.54.52H77.26l-.73,13.63a.43.43,0,0,1-.47.49H73.37c-.42,0-.47-.2-.47-.49Z"/><path class="cls-2" d="M90.16,154c0,.85-2.44,1.37-4.38,1.37-3.71,0-5.49-2-5.49-5.83,0-5.78,3.31-8.81,7.17-8.81,1.45,0,3.32.34,3.32,1.14l-.1,2a.29.29,0,0,1-.29.28,7.5,7.5,0,0,0-2.54-.7c-2,0-3.68,2-3.68,5.5,0,2,.75,3.57,2.65,3.57,1.65,0,2.66-.83,3.16-.83a.29.29,0,0,1,.28.31Z"/><path class="cls-2" d="M95.73,154.57c0,.31-.13.49-.39.49H92.62c-.49,0-.52-.2-.52-.49l1-18.14c0-.33.2-.41.51-.41h2.72c.34,0,.39.1.39.41l-.57,10,0,.05c.34-1.14,1.82-5.78,5.68-5.78,2,0,2.72,1.25,2.72,3.5l-.52,10.39c0,.31-.18.49-.57.49h-2.85c-.46,0-.46-.26-.46-.49l.44-8.5c0-.72,0-1.24-.68-1.24-1.16,0-4.12,5.15-4.12,7.82Z"/><path class="cls-2" d="M106.17,149c0-5.78,3.21-8.32,6.81-8.32s5.78,2.18,5.78,6.45c0,5.55-3.24,8.19-6.94,8.19C108.4,155.32,106.17,153.15,106.17,149Zm6,3.6c1.81,0,2.7-2,2.7-5.39,0-1.84-.26-3.81-2.1-3.81-2.52,0-2.72,4-2.72,5.65C110.06,150.81,110.39,152.6,112.18,152.6Z"/><path class="cls-2" d="M128.81,149.65l-.05-.05c-.49,1.21-2.38,5.72-5.88,5.72-2.15,0-2.51-1.35-2.51-3.06l.54-10.83c0-.31.18-.49.57-.49h2.85c.47,0,.47.26.47.49l-.62,8.53c0,.62,0,1.22.7,1.22,1.29,0,4.24-5.37,4.24-7.8l.13-2c0-.34.21-.42.52-.42h2.72c.34,0,.39.11.39.42l-.72,13.21c0,.31-.13.49-.39.49h-2.72c-.5,0-.52-.2-.52-.49Z"/><path class="cls-2" d="M136.28,136.43c0-.33.2-.41.51-.41h2.72c.34,0,.39.1.39.41l-1,18.14c0,.31-.13.49-.39.49h-2.72c-.49,0-.52-.2-.52-.49Zm3.39,11.25a.82.82,0,0,1-.08-.29.42.42,0,0,1,.16-.33l5.08-5.83a.73.73,0,0,1,.57-.29h3.23c.13,0,.31,0,.31.21a.8.8,0,0,1-.2.44l-5,5.57,4.12,7.18c0,.13.16.26.16.39s-.11.33-.44.33h-3.61a.6.6,0,0,1-.54-.26Z"/><path class="cls-2" d="M150.63,136.43c0-.31.21-.41.52-.41h2.67c.36,0,.44.1.44.41l-.52,9.54,0,.05c.44-1,2-5.34,5.6-5.34,2.85,0,3.39,2.72,3.39,4.85,0,5.49-2.93,9.79-7.18,9.79a6.76,6.76,0,0,1-3.8-1.16l-1.43,1a.51.51,0,0,1-.36.15c-.34,0-.34-.36-.34-.65Zm4.25,16.3c3.73,0,4.27-4.17,4.27-6.58,0-.85-.13-1.84-1-1.84-1.94,0-4.77,7.33-5,8.11A4.1,4.1,0,0,0,154.88,152.73Z"/><path class="cls-2" d="M172.7,150.17l0-.06c-.28,1.09-2,5.21-5.52,5.21-2.25,0-3.21-2-3.21-4.77,0-6.06,3.14-9.87,6.81-9.87a5.75,5.75,0,0,1,2.75.7c0-.21.16-.44.34-.44h2.72c.46,0,.54.18.54.52l-.7,13.11c0,.34-.15.49-.57.49H173c-.46,0-.49-.23-.49-.49Zm-4.19,1.52c1.71,0,4.76-6.68,4.87-8.08a3.58,3.58,0,0,0-1.58-.34c-3.71,0-4.25,4.2-4.25,6.66C167.55,150.76,167.78,151.69,168.51,151.69Z"/><path class="cls-2" d="M180.42,136.43c0-.33.21-.41.52-.41h2.72c.34,0,.39.1.39.41l-1,18.14c0,.31-.13.49-.39.49H180c-.49,0-.52-.2-.52-.49Z"/><path class="cls-2" d="M187.13,136.43c0-.33.21-.41.52-.41h2.72c.34,0,.39.1.39.41l-1,18.14c0,.31-.13.49-.39.49h-2.72c-.49,0-.52-.2-.52-.49Z"/></svg>